# xmcd
#
# Track frame offsets: 
#        150
#        18487
#        36600
#        54937
#
# Disc length: 971 seconds
#
# Revision: 4
# Processed by: cddbd v1.5.2PL0 Copyright (c) Steve Scherf et al.
# Submitted via: ExactAudioCopy v1.0b3
#
DISCID=2e03c904
DTITLE=Buono! - ホントのじぶん
DYEAR=2007
DGENRE=JPop
TTITLE0=ホントのじぶん
TTITLE1=こころのたまご
TTITLE2=ホントのじぶん　（Instrumental）
TTITLE3=こころのたまご　（Instrumental）
EXTD=YEAR: 2007
EXTT0=
EXTT1=
EXTT2=
EXTT3=
PLAYORDER=
